<svg width="571" height="108" viewBox="0 0 571 108" fill="none" xmlns="http://www.w3.org/2000/svg">
<path d="M18.432 1.692H21.06V26.892H18.432V1.692ZM2.664 26.892H0V1.692H2.664V26.892ZM18.684 15.264H2.37599V12.924H18.684V15.264Z" fill="#161411"/>
<path d="M28.7451 26.892V7.992H31.3011V26.892H28.7451ZM30.0411 3.816C29.5131 3.816 29.0692 3.636 28.7092 3.276C28.3492 2.916 28.1692 2.484 28.1692 1.98C28.1692 1.476 28.3492 1.056 28.7092 0.719999C29.0692 0.36 29.5131 0.18 30.0411 0.18C30.5691 0.18 31.0131 0.348 31.3731 0.684C31.7331 1.02 31.9131 1.44 31.9131 1.944C31.9131 2.472 31.7331 2.916 31.3731 3.276C31.0371 3.636 30.5931 3.816 30.0411 3.816Z" fill="#161411"/>
<path d="M37.2443 27.18L38.4491 25.488L38.7371 27.036C38.1851 27.036 37.7171 26.856 37.3331 26.496C36.9731 26.136 36.7931 25.668 36.7931 25.092C36.7931 24.516 36.9731 24.048 37.3331 23.688C37.7171 23.328 38.1731 23.148 38.7011 23.148C39.2531 23.148 39.6971 23.34 40.0331 23.724C40.3931 24.108 40.5731 24.564 40.5731 25.092C40.5731 25.284 40.5611 25.476 40.5371 25.668C40.5131 25.86 40.4651 26.076 40.3931 26.316C40.3211 26.556 40.2251 26.844 40.1051 27.18L38.9723 27.18H37.2443Z" fill="#161411"/>
<path d="M56.0039 26.892V1.692H58.6679V26.892H56.0039Z" fill="#161411"/>
<path d="M64.7792 8.964L66.3632 2.34L66.6512 3.852C66.0992 3.852 65.6312 3.684 65.2472 3.348C64.8872 2.988 64.7072 2.52 64.7072 1.944C64.7072 1.368 64.8872 0.900001 65.2472 0.539999C65.6312 0.18 66.0872 0 66.6152 0C67.1672 0 67.6112 0.192 67.9472 0.576001C68.3072 0.936001 68.4872 1.392 68.4872 1.944C68.4872 2.136 68.4752 2.328 68.4512 2.52C68.4272 2.712 68.3792 2.928 68.3072 3.168C68.2592 3.384 68.1752 3.66 68.0552 3.996L66.5072 8.964H64.7792Z" fill="#161411"/>
<path d="M97.5721 7.812C99.1081 7.812 100.44 8.112 101.568 8.712C102.72 9.288 103.608 10.176 104.232 11.376C104.88 12.576 105.204 14.088 105.204 15.912V26.892H102.648V16.164C102.648 14.172 102.168 12.672 101.208 11.664C100.272 10.632 98.9401 10.116 97.2121 10.116C95.9161 10.116 94.7881 10.392 93.8281 10.944C92.8921 11.472 92.1601 12.252 91.6321 13.284C91.1281 14.292 90.8761 15.516 90.8761 16.956V26.892H88.3201V16.164C88.3201 14.172 87.8401 12.672 86.8801 11.664C85.9201 10.632 84.5761 10.116 82.8481 10.116C81.5761 10.116 80.4601 10.392 79.5001 10.944C78.5401 11.472 77.7961 12.252 77.2681 13.284C76.7641 14.292 76.5121 15.516 76.5121 16.956V26.892H73.9561V7.992H76.4041V13.104L76.0081 12.204C76.5841 10.836 77.5081 9.768 78.7801 9C80.0761 8.208 81.6001 7.812 83.3521 7.812C85.2001 7.812 86.7721 8.28 88.0681 9.216C89.3641 10.128 90.2041 11.508 90.5881 13.356L89.5801 12.96C90.1321 11.424 91.1041 10.188 92.4961 9.252C93.9121 8.292 95.6041 7.812 97.5721 7.812Z" fill="#161411"/>
<path d="M122.098 26.892V1.692H124.294L135.814 21.348H134.662L146.074 1.692H148.27V26.892H145.714V5.688H146.326L135.814 23.688H134.554L123.97 5.688H124.654V26.892H122.098Z" fill="#161411"/>
<path d="M163.752 27.072C162.144 27.072 160.74 26.772 159.54 26.172C158.34 25.572 157.404 24.672 156.732 23.472C156.084 22.272 155.76 20.772 155.76 18.972V7.992H158.316V18.684C158.316 20.7 158.808 22.224 159.792 23.256C160.8 24.264 162.204 24.768 164.004 24.768C165.324 24.768 166.464 24.504 167.424 23.976C168.408 23.424 169.152 22.632 169.656 21.6C170.184 20.568 170.448 19.332 170.448 17.892V7.992H173.004V26.892H170.556V21.708L170.952 22.644C170.352 24.036 169.416 25.128 168.144 25.92C166.896 26.688 165.432 27.072 163.752 27.072Z" fill="#161411"/>
<path d="M189.776 7.812C191.312 7.812 192.656 8.112 193.808 8.712C194.984 9.288 195.896 10.176 196.544 11.376C197.216 12.576 197.552 14.088 197.552 15.912V26.892H194.996V16.164C194.996 14.172 194.492 12.672 193.484 11.664C192.5 10.632 191.108 10.116 189.308 10.116C187.964 10.116 186.788 10.392 185.78 10.944C184.796 11.472 184.028 12.252 183.476 13.284C182.948 14.292 182.684 15.516 182.684 16.956V26.892H180.128V0.18H182.684V13.176L182.18 12.204C182.78 10.836 183.74 9.768 185.06 9C186.38 8.208 187.952 7.812 189.776 7.812Z" fill="#161411"/>
<path d="M216.3 26.892V22.716L216.192 22.032V15.048C216.192 13.44 215.736 12.204 214.824 11.34C213.936 10.476 212.604 10.044 210.828 10.044C209.604 10.044 208.44 10.248 207.336 10.656C206.232 11.064 205.296 11.604 204.528 12.276L203.376 10.368C204.336 9.552 205.488 8.928 206.832 8.496C208.176 8.04 209.592 7.812 211.08 7.812C213.528 7.812 215.412 8.424 216.732 9.648C218.076 10.848 218.748 12.684 218.748 15.156V26.892H216.3ZM209.784 27.072C208.368 27.072 207.132 26.844 206.076 26.388C205.044 25.908 204.252 25.26 203.7 24.444C203.148 23.604 202.872 22.644 202.872 21.564C202.872 20.58 203.1 19.692 203.556 18.9C204.036 18.084 204.804 17.436 205.86 16.956C206.94 16.452 208.38 16.2 210.18 16.2H216.696V18.108H210.252C208.428 18.108 207.156 18.432 206.436 19.08C205.74 19.728 205.392 20.532 205.392 21.492C205.392 22.572 205.812 23.436 206.652 24.084C207.492 24.732 208.668 25.056 210.18 25.056C211.62 25.056 212.856 24.732 213.888 24.084C214.944 23.412 215.712 22.452 216.192 21.204L216.768 22.968C216.288 24.216 215.448 25.212 214.248 25.956C213.072 26.7 211.584 27.072 209.784 27.072Z" fill="#161411"/>
<path d="M249.306 7.812C250.842 7.812 252.174 8.112 253.302 8.712C254.454 9.288 255.342 10.176 255.966 11.376C256.614 12.576 256.938 14.088 256.938 15.912V26.892H254.382V16.164C254.382 14.172 253.902 12.672 252.942 11.664C252.006 10.632 250.674 10.116 248.946 10.116C247.65 10.116 246.522 10.392 245.562 10.944C244.626 11.472 243.894 12.252 243.366 13.284C242.862 14.292 242.61 15.516 242.61 16.956V26.892H240.054V16.164C240.054 14.172 239.574 12.672 238.614 11.664C237.654 10.632 236.31 10.116 234.582 10.116C233.31 10.116 232.194 10.392 231.234 10.944C230.274 11.472 229.53 12.252 229.002 13.284C228.498 14.292 228.246 15.516 228.246 16.956V26.892H225.69V7.992H228.138V13.104L227.742 12.204C228.318 10.836 229.242 9.768 230.514 9C231.81 8.208 233.334 7.812 235.086 7.812C236.934 7.812 238.506 8.28 239.802 9.216C241.098 10.128 241.938 11.508 242.322 13.356L241.314 12.96C241.866 11.424 242.838 10.188 244.23 9.252C245.646 8.292 247.338 7.812 249.306 7.812Z" fill="#161411"/>
<path d="M287.486 7.812C289.022 7.812 290.354 8.112 291.482 8.712C292.634 9.288 293.522 10.176 294.146 11.376C294.794 12.576 295.118 14.088 295.118 15.912V26.892H292.562V16.164C292.562 14.172 292.082 12.672 291.122 11.664C290.186 10.632 288.854 10.116 287.126 10.116C285.83 10.116 284.702 10.392 283.742 10.944C282.806 11.472 282.074 12.252 281.546 13.284C281.042 14.292 280.79 15.516 280.79 16.956V26.892H278.234V16.164C278.234 14.172 277.754 12.672 276.794 11.664C275.834 10.632 274.49 10.116 272.762 10.116C271.49 10.116 270.374 10.392 269.414 10.944C268.454 11.472 267.71 12.252 267.182 13.284C266.678 14.292 266.426 15.516 266.426 16.956V26.892H263.87V7.992H266.318V13.104L265.922 12.204C266.498 10.836 267.422 9.768 268.694 9C269.99 8.208 271.514 7.812 273.266 7.812C275.114 7.812 276.686 8.28 277.982 9.216C279.278 10.128 280.118 11.508 280.502 13.356L279.494 12.96C280.046 11.424 281.018 10.188 282.41 9.252C283.826 8.292 285.518 7.812 287.486 7.812Z" fill="#161411"/>
<path d="M310.078 27.072C308.11 27.072 306.382 26.664 304.894 25.848C303.406 25.008 302.242 23.868 301.402 22.428C300.562 20.964 300.142 19.296 300.142 17.424C300.142 15.552 300.538 13.896 301.33 12.456C302.146 11.016 303.25 9.888 304.642 9.072C306.058 8.232 307.642 7.812 309.394 7.812C311.17 7.812 312.742 8.22 314.11 9.036C315.502 9.828 316.594 10.956 317.386 12.42C318.178 13.86 318.574 15.528 318.574 17.424C318.574 17.544 318.562 17.676 318.538 17.82C318.538 17.94 318.538 18.072 318.538 18.216H302.086V16.308H317.17L316.162 17.064C316.162 15.696 315.862 14.484 315.262 13.428C314.686 12.348 313.894 11.508 312.886 10.908C311.878 10.308 310.714 10.008 309.394 10.008C308.098 10.008 306.934 10.308 305.902 10.908C304.87 11.508 304.066 12.348 303.49 13.428C302.914 14.508 302.626 15.744 302.626 17.136V17.532C302.626 18.972 302.938 20.244 303.562 21.348C304.21 22.428 305.098 23.28 306.226 23.904C307.378 24.504 308.686 24.804 310.15 24.804C311.302 24.804 312.37 24.6 313.354 24.192C314.362 23.784 315.226 23.16 315.946 22.32L317.386 23.976C316.546 24.984 315.49 25.752 314.218 26.28C312.97 26.808 311.59 27.072 310.078 27.072Z" fill="#161411"/>
<path d="M331.3 27.072C329.5 27.072 327.88 26.664 326.44 25.848C325.024 25.032 323.908 23.904 323.092 22.464C322.276 21 321.868 19.32 321.868 17.424C321.868 15.504 322.276 13.824 323.092 12.384C323.908 10.944 325.024 9.828 326.44 9.036C327.88 8.22 329.5 7.812 331.3 7.812C332.956 7.812 334.432 8.184 335.728 8.928C337.048 9.672 338.092 10.764 338.86 12.204C339.652 13.62 340.048 15.36 340.048 17.424C340.048 19.464 339.664 21.204 338.896 22.644C338.128 24.084 337.084 25.188 335.764 25.956C334.468 26.7 332.98 27.072 331.3 27.072ZM331.48 24.804C332.824 24.804 334.024 24.504 335.08 23.904C336.16 23.28 337 22.416 337.6 21.312C338.224 20.184 338.536 18.888 338.536 17.424C338.536 15.936 338.224 14.64 337.6 13.536C337 12.432 336.16 11.58 335.08 10.98C334.024 10.356 332.824 10.044 331.48 10.044C330.16 10.044 328.972 10.356 327.916 10.98C326.86 11.58 326.02 12.432 325.396 13.536C324.772 14.64 324.46 15.936 324.46 17.424C324.46 18.888 324.772 20.184 325.396 21.312C326.02 22.416 326.86 23.28 327.916 23.904C328.972 24.504 330.16 24.804 331.48 24.804ZM338.608 26.892V21.204L338.86 17.388L338.5 13.572V0.18H341.056V26.892H338.608Z" fill="#161411"/>
<path d="M28.6875 106.924C25.5938 106.924 22.6875 106.346 19.9688 105.19C17.25 104.002 14.8594 102.393 12.7969 100.361C10.7656 98.2989 9.15625 95.9083 7.96875 93.1895C6.8125 90.4708 6.23438 87.5645 6.23438 84.4708V69.5645H0V56.8146H6.23438V36.7521H18.9844V56.8146H38.3906V69.5645H18.9844V84.4708C18.9844 85.8145 19.2344 87.0802 19.7344 88.2677C20.2344 89.4239 20.9219 90.4395 21.7969 91.3145C22.6719 92.1895 23.7031 92.8927 24.8906 93.4239C26.0781 93.9239 27.3438 94.1739 28.6875 94.1739H38.3906V106.924H28.6875Z" fill="#161411"/>
<path d="M58.4062 106.924H45.6094V36.7521H58.4062V58.9239C59.9375 57.7677 61.5156 56.9552 63.1406 56.4864C64.7656 55.9864 66.4219 55.7364 68.1094 55.7364C71.2031 55.7364 74.1094 56.3302 76.8281 57.5177C79.5469 58.6739 81.9062 60.2833 83.9062 62.3458C85.9375 64.3771 87.5312 66.7677 88.6875 69.5177C89.875 72.2364 90.4688 75.1427 90.4688 78.2364V106.924H77.5781V78.2364H77.6719C77.6719 76.9239 77.4219 75.6895 76.9219 74.5333C76.4219 73.3458 75.7344 72.3145 74.8594 71.4395C73.9844 70.5645 72.9688 69.877 71.8125 69.377C70.6562 68.877 69.4219 68.6271 68.1094 68.6271C66.7656 68.6271 65.5 68.877 64.3125 69.377C63.125 69.877 62.0938 70.5645 61.2188 71.4395C60.3438 72.3145 59.6562 73.3458 59.1562 74.5333C58.6562 75.6895 58.4062 76.9239 58.4062 78.2364V106.924Z" fill="#161411"/>
<path d="M119.578 94.6427C120.078 94.7989 120.578 94.9083 121.078 94.9708C121.578 95.002 122.078 95.0177 122.578 95.0177C123.828 95.0177 125.031 94.8458 126.188 94.502C127.344 94.1583 128.422 93.6739 129.422 93.0489C130.453 92.3927 131.359 91.6114 132.141 90.7052C132.953 89.7677 133.609 88.7364 134.109 87.6114L143.484 97.0333C142.297 98.7208 140.922 100.236 139.359 101.58C137.828 102.924 136.156 104.065 134.344 105.002C132.562 105.94 130.672 106.643 128.672 107.111C126.703 107.611 124.672 107.861 122.578 107.861C119.047 107.861 115.719 107.205 112.594 105.893C109.5 104.58 106.781 102.752 104.438 100.408C102.125 98.0645 100.297 95.2833 98.9531 92.0645C97.6094 88.8145 96.9375 85.252 96.9375 81.377C96.9375 77.4083 97.6094 73.7833 98.9531 70.502C100.297 67.2208 102.125 64.4239 104.438 62.1114C106.781 59.7989 109.5 58.0021 112.594 56.7208C115.719 55.4396 119.047 54.7989 122.578 54.7989C124.672 54.7989 126.719 55.0489 128.719 55.5489C130.719 56.0489 132.609 56.7677 134.391 57.7052C136.203 58.6427 137.891 59.7989 139.453 61.1739C141.016 62.5177 142.391 64.0333 143.578 65.7208L119.578 94.6427ZM126.141 68.2521C125.547 68.0333 124.953 67.8927 124.359 67.8302C123.797 67.7677 123.203 67.7364 122.578 67.7364C120.828 67.7364 119.172 68.0646 117.609 68.7208C116.078 69.3458 114.734 70.252 113.578 71.4395C112.453 72.627 111.562 74.0645 110.906 75.752C110.25 77.4083 109.922 79.2833 109.922 81.377C109.922 81.8458 109.938 82.377 109.969 82.9708C110.031 83.5645 110.109 84.1739 110.203 84.7989C110.328 85.3927 110.469 85.9708 110.625 86.5333C110.781 87.0958 110.984 87.5958 111.234 88.0333L126.141 68.2521Z" fill="#161411"/>
<path d="M191.766 106.924H178.312V39.7052H191.766V106.924Z" fill="#161411"/>
<path d="M251.344 106.924H204.281V39.7052H217.734V93.4708H251.344V106.924Z" fill="#161411"/>
<path d="M305.438 106.924H258.375V39.7052H271.828V93.4708H305.438V106.924Z" fill="#161411"/>
<path d="M334.078 106.924H320.672V85.877C317.703 85.127 314.969 83.9239 312.469 82.2677C310 80.6114 307.875 78.6427 306.094 76.3614C304.312 74.0489 302.922 71.5021 301.922 68.7208C300.953 65.9083 300.469 62.9552 300.469 59.8614V39.7052H313.922V59.8614C313.922 61.7052 314.266 63.4552 314.953 65.1114C315.672 66.7364 316.641 68.1583 317.859 69.377C319.078 70.5958 320.5 71.5645 322.125 72.2833C323.781 72.9708 325.531 73.3145 327.375 73.3145C329.219 73.3145 330.953 72.9708 332.578 72.2833C334.234 71.5645 335.672 70.5958 336.891 69.377C338.109 68.1583 339.062 66.7364 339.75 65.1114C340.469 63.4552 340.828 61.7052 340.828 59.8614V39.7052H354.234V59.8614C354.234 62.9552 353.734 65.9083 352.734 68.7208C351.766 71.5021 350.391 74.0489 348.609 76.3614C346.828 78.6427 344.703 80.6114 342.234 82.2677C339.766 83.9239 337.047 85.127 334.078 85.877V106.924Z" fill="#161411"/>
<path d="M376.828 53.1583V80.0645H390.281C392.125 80.0645 393.859 79.7208 395.484 79.0333C397.109 78.3145 398.531 77.3458 399.75 76.127C400.969 74.9083 401.922 73.4864 402.609 71.8614C403.328 70.2052 403.688 68.4552 403.688 66.6114C403.688 64.7677 403.328 63.0333 402.609 61.4083C401.922 59.7521 400.969 58.3146 399.75 57.0958C398.531 55.8771 397.109 54.9239 395.484 54.2364C393.859 53.5177 392.125 53.1583 390.281 53.1583H376.828ZM376.828 106.924H363.375V39.7052H390.281C392.75 39.7052 395.125 40.0333 397.406 40.6896C399.688 41.3146 401.812 42.2208 403.781 43.4083C405.781 44.5646 407.594 45.9708 409.219 47.6271C410.875 49.2521 412.281 51.0646 413.438 53.0646C414.625 55.0646 415.531 57.2052 416.156 59.4864C416.812 61.7677 417.141 64.1427 417.141 66.6114C417.141 68.9239 416.844 71.1739 416.25 73.3614C415.688 75.5489 414.859 77.627 413.766 79.5958C412.703 81.5645 411.391 83.377 409.828 85.0333C408.266 86.6895 406.516 88.127 404.578 89.3458L412.031 106.924H397.734L391.875 93.377L376.828 93.4708V106.924Z" fill="#161411"/>
<path d="M439.453 106.924H426V39.7052H439.453V106.924Z" fill="#161411"/>
<path d="M491.531 80.0645V66.6114C491.531 64.7677 491.172 63.0333 490.453 61.4083C489.766 59.7521 488.812 58.3146 487.594 57.0958C486.375 55.8771 484.938 54.9239 483.281 54.2364C481.656 53.5177 479.922 53.1583 478.078 53.1583C476.234 53.1583 474.484 53.5177 472.828 54.2364C471.203 54.9239 469.781 55.8771 468.562 57.0958C467.344 58.3146 466.375 59.7521 465.656 61.4083C464.969 63.0333 464.625 64.7677 464.625 66.6114V80.0645H491.531ZM504.984 106.924H491.531V93.4708H464.625V106.924H451.219V66.6114C451.219 62.8927 451.922 59.4083 453.328 56.1583C454.734 52.8771 456.641 50.0177 459.047 47.5802C461.484 45.1427 464.328 43.2208 467.578 41.8146C470.859 40.4083 474.359 39.7052 478.078 39.7052C481.797 39.7052 485.281 40.4083 488.531 41.8146C491.812 43.2208 494.672 45.1427 497.109 47.5802C499.547 50.0177 501.469 52.8771 502.875 56.1583C504.281 59.4083 504.984 62.8927 504.984 66.6114V106.924Z" fill="#161411"/>
<path d="M570.422 106.924H556.031L530.109 62.6739V106.924H516.656V39.7052H531.047L556.969 84.002V39.7052H570.422V106.924Z" fill="#161411"/>
</svg>
