<svg width="571" height="108" viewBox="0 0 571 108" fill="none" xmlns="http://www.w3.org/2000/svg">
<path d="M248.157 1.76799H250.785V26.968H248.157V1.76799ZM232.389 26.968H229.725V1.76799H232.389V26.968ZM248.409 15.34H232.101V13H248.409V15.34Z" fill="#161411"/>
<path d="M258.47 26.968V8.06799H261.026V26.968H258.47ZM259.766 3.89199C259.238 3.89199 258.794 3.71199 258.434 3.35199C258.074 2.99199 257.894 2.55999 257.894 2.05599C257.894 1.55199 258.074 1.13199 258.434 0.795988C258.794 0.435988 259.238 0.255989 259.766 0.255989C260.294 0.255989 260.738 0.423989 261.098 0.759989C261.458 1.09599 261.638 1.51599 261.638 2.01999C261.638 2.54799 261.458 2.99199 261.098 3.35199C260.762 3.71199 260.318 3.89199 259.766 3.89199Z" fill="#161411"/>
<path d="M266.969 27.256L268.174 25.564L268.462 27.112C267.91 27.112 267.442 26.932 267.058 26.572C266.698 26.212 266.518 25.744 266.518 25.168C266.518 24.592 266.698 24.124 267.058 23.764C267.442 23.404 267.898 23.224 268.426 23.224C268.978 23.224 269.422 23.416 269.758 23.8C270.118 24.184 270.298 24.64 270.298 25.168C270.298 25.36 270.286 25.552 270.262 25.744C270.238 25.936 270.19 26.152 270.118 26.392C270.046 26.632 269.95 26.92 269.83 27.256L268.697 27.256H266.969Z" fill="#161411"/>
<path d="M285.729 26.968V1.76799H288.393V26.968H285.729Z" fill="#161411"/>
<path d="M294.504 9.03999L296.088 2.41599L296.376 3.92799C295.824 3.92799 295.356 3.75999 294.972 3.42399C294.612 3.06399 294.432 2.59599 294.432 2.01999C294.432 1.44399 294.612 0.975989 294.972 0.615988C295.356 0.255989 295.812 0.0759888 296.34 0.0759888C296.892 0.0759888 297.336 0.267989 297.672 0.65199C298.032 1.01199 298.212 1.46799 298.212 2.01999C298.212 2.21199 298.2 2.40399 298.176 2.59599C298.152 2.78799 298.104 3.00399 298.032 3.24399C297.984 3.45999 297.9 3.73599 297.78 4.07199L296.232 9.03999H294.504Z" fill="#161411"/>
<path d="M327.297 7.88799C328.833 7.88799 330.165 8.18799 331.293 8.78799C332.445 9.36399 333.333 10.252 333.957 11.452C334.605 12.652 334.929 14.164 334.929 15.988V26.968H332.373V16.24C332.373 14.248 331.893 12.748 330.933 11.74C329.997 10.708 328.665 10.192 326.937 10.192C325.641 10.192 324.513 10.468 323.553 11.02C322.617 11.548 321.885 12.328 321.357 13.36C320.853 14.368 320.601 15.592 320.601 17.032V26.968H318.045V16.24C318.045 14.248 317.565 12.748 316.605 11.74C315.645 10.708 314.301 10.192 312.573 10.192C311.301 10.192 310.185 10.468 309.225 11.02C308.265 11.548 307.521 12.328 306.993 13.36C306.489 14.368 306.237 15.592 306.237 17.032V26.968H303.681V8.06799H306.129V13.18L305.733 12.28C306.309 10.912 307.233 9.84399 308.505 9.07599C309.801 8.28399 311.325 7.88799 313.077 7.88799C314.925 7.88799 316.497 8.35599 317.793 9.29199C319.089 10.204 319.929 11.584 320.313 13.432L319.305 13.036C319.857 11.5 320.829 10.264 322.221 9.32799C323.637 8.36799 325.329 7.88799 327.297 7.88799Z" fill="#161411"/>
<path d="M351.823 26.968V1.76799H354.018L365.539 21.424H364.387L375.798 1.76799H377.995V26.968H375.439V5.76399H376.051L365.539 23.764H364.279L353.695 5.76399H354.379V26.968H351.823Z" fill="#161411"/>
<path d="M393.477 27.148C391.869 27.148 390.465 26.848 389.265 26.248C388.065 25.648 387.129 24.748 386.457 23.548C385.809 22.348 385.485 20.848 385.485 19.048V8.06799H388.041V18.76C388.041 20.776 388.533 22.3 389.517 23.332C390.525 24.34 391.929 24.844 393.729 24.844C395.049 24.844 396.189 24.58 397.149 24.052C398.133 23.5 398.877 22.708 399.381 21.676C399.909 20.644 400.173 19.408 400.173 17.968V8.06799H402.729V26.968H400.281V21.784L400.677 22.72C400.077 24.112 399.141 25.204 397.869 25.996C396.621 26.764 395.157 27.148 393.477 27.148Z" fill="#161411"/>
<path d="M419.501 7.88799C421.037 7.88799 422.381 8.18799 423.533 8.78799C424.709 9.36399 425.621 10.252 426.269 11.452C426.941 12.652 427.277 14.164 427.277 15.988V26.968H424.721V16.24C424.721 14.248 424.217 12.748 423.209 11.74C422.225 10.708 420.833 10.192 419.033 10.192C417.689 10.192 416.513 10.468 415.505 11.02C414.521 11.548 413.753 12.328 413.201 13.36C412.673 14.368 412.409 15.592 412.409 17.032V26.968H409.853V0.255989H412.409V13.252L411.905 12.28C412.505 10.912 413.465 9.84399 414.785 9.07599C416.105 8.28399 417.677 7.88799 419.501 7.88799Z" fill="#161411"/>
<path d="M446.025 26.968V22.792L445.917 22.108V15.124C445.917 13.516 445.461 12.28 444.549 11.416C443.661 10.552 442.329 10.12 440.553 10.12C439.329 10.12 438.165 10.324 437.061 10.732C435.957 11.14 435.021 11.68 434.253 12.352L433.101 10.444C434.061 9.62799 435.213 9.00399 436.557 8.57199C437.901 8.11599 439.317 7.88799 440.805 7.88799C443.253 7.88799 445.137 8.49999 446.457 9.72399C447.801 10.924 448.473 12.76 448.473 15.232V26.968H446.025ZM439.509 27.148C438.093 27.148 436.857 26.92 435.801 26.464C434.769 25.984 433.977 25.336 433.425 24.52C432.873 23.68 432.597 22.72 432.597 21.64C432.597 20.656 432.825 19.768 433.281 18.976C433.761 18.16 434.529 17.512 435.585 17.032C436.665 16.528 438.105 16.276 439.905 16.276H446.421V18.184H439.977C438.153 18.184 436.881 18.508 436.161 19.156C435.465 19.804 435.117 20.608 435.117 21.568C435.117 22.648 435.537 23.512 436.377 24.16C437.217 24.808 438.393 25.132 439.905 25.132C441.345 25.132 442.581 24.808 443.613 24.16C444.669 23.488 445.437 22.528 445.917 21.28L446.493 23.044C446.013 24.292 445.173 25.288 443.973 26.032C442.797 26.776 441.309 27.148 439.509 27.148Z" fill="#161411"/>
<path d="M479.031 7.88799C480.567 7.88799 481.899 8.18799 483.027 8.78799C484.179 9.36399 485.067 10.252 485.691 11.452C486.339 12.652 486.663 14.164 486.663 15.988V26.968H484.107V16.24C484.107 14.248 483.627 12.748 482.667 11.74C481.731 10.708 480.399 10.192 478.671 10.192C477.375 10.192 476.247 10.468 475.287 11.02C474.351 11.548 473.619 12.328 473.091 13.36C472.587 14.368 472.335 15.592 472.335 17.032V26.968H469.779V16.24C469.779 14.248 469.299 12.748 468.339 11.74C467.379 10.708 466.035 10.192 464.307 10.192C463.035 10.192 461.919 10.468 460.959 11.02C459.999 11.548 459.255 12.328 458.727 13.36C458.223 14.368 457.971 15.592 457.971 17.032V26.968H455.415V8.06799H457.863V13.18L457.467 12.28C458.043 10.912 458.967 9.84399 460.239 9.07599C461.535 8.28399 463.059 7.88799 464.811 7.88799C466.659 7.88799 468.231 8.35599 469.527 9.29199C470.823 10.204 471.663 11.584 472.047 13.432L471.039 13.036C471.591 11.5 472.563 10.264 473.955 9.32799C475.371 8.36799 477.063 7.88799 479.031 7.88799Z" fill="#161411"/>
<path d="M517.211 7.88799C518.747 7.88799 520.079 8.18799 521.207 8.78799C522.359 9.36399 523.247 10.252 523.871 11.452C524.519 12.652 524.843 14.164 524.843 15.988V26.968H522.287V16.24C522.287 14.248 521.807 12.748 520.847 11.74C519.911 10.708 518.579 10.192 516.851 10.192C515.555 10.192 514.427 10.468 513.467 11.02C512.531 11.548 511.799 12.328 511.271 13.36C510.767 14.368 510.515 15.592 510.515 17.032V26.968H507.959V16.24C507.959 14.248 507.479 12.748 506.519 11.74C505.559 10.708 504.215 10.192 502.487 10.192C501.215 10.192 500.099 10.468 499.139 11.02C498.179 11.548 497.435 12.328 496.907 13.36C496.403 14.368 496.151 15.592 496.151 17.032V26.968H493.595V8.06799H496.043V13.18L495.647 12.28C496.223 10.912 497.147 9.84399 498.419 9.07599C499.715 8.28399 501.239 7.88799 502.991 7.88799C504.839 7.88799 506.411 8.35599 507.707 9.29199C509.003 10.204 509.843 11.584 510.227 13.432L509.219 13.036C509.771 11.5 510.743 10.264 512.135 9.32799C513.551 8.36799 515.243 7.88799 517.211 7.88799Z" fill="#161411"/>
<path d="M539.803 27.148C537.835 27.148 536.107 26.74 534.619 25.924C533.131 25.084 531.967 23.944 531.127 22.504C530.287 21.04 529.867 19.372 529.867 17.5C529.867 15.628 530.263 13.972 531.055 12.532C531.871 11.092 532.975 9.96399 534.367 9.14799C535.783 8.30799 537.367 7.88799 539.119 7.88799C540.895 7.88799 542.467 8.29599 543.835 9.11199C545.227 9.90399 546.319 11.032 547.111 12.496C547.903 13.936 548.299 15.604 548.299 17.5C548.299 17.62 548.287 17.752 548.263 17.896C548.263 18.016 548.263 18.148 548.263 18.292H531.811V16.384H546.895L545.887 17.14C545.887 15.772 545.587 14.56 544.987 13.504C544.411 12.424 543.619 11.584 542.611 10.984C541.603 10.384 540.439 10.084 539.119 10.084C537.823 10.084 536.659 10.384 535.627 10.984C534.595 11.584 533.791 12.424 533.215 13.504C532.639 14.584 532.351 15.82 532.351 17.212V17.608C532.351 19.048 532.663 20.32 533.287 21.424C533.935 22.504 534.823 23.356 535.951 23.98C537.103 24.58 538.411 24.88 539.875 24.88C541.027 24.88 542.095 24.676 543.079 24.268C544.087 23.86 544.951 23.236 545.671 22.396L547.111 24.052C546.271 25.06 545.215 25.828 543.943 26.356C542.695 26.884 541.315 27.148 539.803 27.148Z" fill="#161411"/>
<path d="M561.025 27.148C559.225 27.148 557.605 26.74 556.165 25.924C554.749 25.108 553.633 23.98 552.817 22.54C552.001 21.076 551.593 19.396 551.593 17.5C551.593 15.58 552.001 13.9 552.817 12.46C553.633 11.02 554.749 9.90399 556.165 9.11199C557.605 8.29599 559.225 7.88799 561.025 7.88799C562.681 7.88799 564.157 8.25999 565.453 9.00399C566.773 9.74799 567.817 10.84 568.585 12.28C569.377 13.696 569.773 15.436 569.773 17.5C569.773 19.54 569.389 21.28 568.621 22.72C567.853 24.16 566.809 25.264 565.489 26.032C564.193 26.776 562.705 27.148 561.025 27.148ZM561.205 24.88C562.549 24.88 563.749 24.58 564.805 23.98C565.885 23.356 566.725 22.492 567.325 21.388C567.949 20.26 568.261 18.964 568.261 17.5C568.261 16.012 567.949 14.716 567.325 13.612C566.725 12.508 565.885 11.656 564.805 11.056C563.749 10.432 562.549 10.12 561.205 10.12C559.885 10.12 558.697 10.432 557.641 11.056C556.585 11.656 555.745 12.508 555.121 13.612C554.497 14.716 554.185 16.012 554.185 17.5C554.185 18.964 554.497 20.26 555.121 21.388C555.745 22.492 556.585 23.356 557.641 23.98C558.697 24.58 559.885 24.88 561.205 24.88ZM568.333 26.968V21.28L568.585 17.464L568.225 13.648V0.255989H570.781V26.968H568.333Z" fill="#161411"/>
<path d="M29.0469 107C25.9531 107 23.0469 106.422 20.3281 105.266C17.6094 104.078 15.2188 102.469 13.1562 100.438C11.125 98.375 9.51562 95.9844 8.32812 93.2656C7.17188 90.5469 6.59375 87.6406 6.59375 84.5469V69.6406H0.359375V56.8906H6.59375V36.8282H19.3438V56.8906H38.75V69.6406H19.3438V84.5469C19.3438 85.8906 19.5938 87.1562 20.0938 88.3438C20.5938 89.5 21.2812 90.5156 22.1562 91.3906C23.0312 92.2656 24.0625 92.9688 25.25 93.5C26.4375 94 27.7031 94.25 29.0469 94.25H38.75V107H29.0469Z" fill="#161411"/>
<path d="M58.7656 107H45.9688V36.8282H58.7656V59C60.2969 57.8438 61.875 57.0313 63.5 56.5625C65.125 56.0625 66.7812 55.8125 68.4688 55.8125C71.5625 55.8125 74.4688 56.4063 77.1875 57.5938C79.9062 58.75 82.2656 60.3594 84.2656 62.4219C86.2969 64.4531 87.8906 66.8438 89.0469 69.5938C90.2344 72.3125 90.8281 75.2188 90.8281 78.3125V107H77.9375V78.3125H78.0312C78.0312 77 77.7812 75.7656 77.2812 74.6094C76.7812 73.4219 76.0938 72.3906 75.2188 71.5156C74.3438 70.6406 73.3281 69.9531 72.1719 69.4531C71.0156 68.9531 69.7812 68.7031 68.4688 68.7031C67.125 68.7031 65.8594 68.9531 64.6719 69.4531C63.4844 69.9531 62.4531 70.6406 61.5781 71.5156C60.7031 72.3906 60.0156 73.4219 59.5156 74.6094C59.0156 75.7656 58.7656 77 58.7656 78.3125V107Z" fill="#161411"/>
<path d="M119.938 94.7188C120.438 94.875 120.938 94.9844 121.438 95.0469C121.938 95.0781 122.438 95.0938 122.938 95.0938C124.188 95.0938 125.391 94.9219 126.547 94.5781C127.703 94.2344 128.781 93.75 129.781 93.125C130.812 92.4688 131.719 91.6875 132.5 90.7812C133.312 89.8438 133.969 88.8125 134.469 87.6875L143.844 97.1094C142.656 98.7969 141.281 100.312 139.719 101.656C138.188 103 136.516 104.141 134.703 105.078C132.922 106.016 131.031 106.719 129.031 107.188C127.062 107.688 125.031 107.938 122.938 107.938C119.406 107.938 116.078 107.281 112.953 105.969C109.859 104.656 107.141 102.828 104.797 100.484C102.484 98.1406 100.656 95.3594 99.3125 92.1406C97.9688 88.8906 97.2969 85.3281 97.2969 81.4531C97.2969 77.4844 97.9688 73.8594 99.3125 70.5781C100.656 67.2969 102.484 64.5 104.797 62.1875C107.141 59.875 109.859 58.0781 112.953 56.7969C116.078 55.5156 119.406 54.875 122.938 54.875C125.031 54.875 127.078 55.125 129.078 55.625C131.078 56.125 132.969 56.8438 134.75 57.7813C136.562 58.7188 138.25 59.875 139.812 61.25C141.375 62.5938 142.75 64.1094 143.938 65.7969L119.938 94.7188ZM126.5 68.3281C125.906 68.1094 125.312 67.9688 124.719 67.9063C124.156 67.8438 123.562 67.8125 122.938 67.8125C121.188 67.8125 119.531 68.1406 117.969 68.7969C116.438 69.4219 115.094 70.3281 113.938 71.5156C112.812 72.7031 111.922 74.1406 111.266 75.8281C110.609 77.4844 110.281 79.3594 110.281 81.4531C110.281 81.9219 110.297 82.4531 110.328 83.0469C110.391 83.6406 110.469 84.25 110.562 84.875C110.688 85.4688 110.828 86.0469 110.984 86.6094C111.141 87.1719 111.344 87.6719 111.594 88.1094L126.5 68.3281Z" fill="#161411"/>
<path d="M192.125 107H178.672V39.7813H192.125V107Z" fill="#161411"/>
<path d="M251.703 107H204.641V39.7813H218.094V93.5469H251.703V107Z" fill="#161411"/>
<path d="M305.797 107H258.734V39.7813H272.188V93.5469H305.797V107Z" fill="#161411"/>
<path d="M334.438 107H321.031V85.9531C318.062 85.2031 315.328 84 312.828 82.3438C310.359 80.6875 308.234 78.7188 306.453 76.4375C304.672 74.125 303.281 71.5781 302.281 68.7969C301.312 65.9844 300.828 63.0313 300.828 59.9375V39.7813H314.281V59.9375C314.281 61.7813 314.625 63.5313 315.312 65.1875C316.031 66.8125 317 68.2344 318.219 69.4531C319.438 70.6719 320.859 71.6406 322.484 72.3594C324.141 73.0469 325.891 73.3906 327.734 73.3906C329.578 73.3906 331.312 73.0469 332.938 72.3594C334.594 71.6406 336.031 70.6719 337.25 69.4531C338.469 68.2344 339.422 66.8125 340.109 65.1875C340.828 63.5313 341.188 61.7813 341.188 59.9375V39.7813H354.594V59.9375C354.594 63.0313 354.094 65.9844 353.094 68.7969C352.125 71.5781 350.75 74.125 348.969 76.4375C347.188 78.7188 345.062 80.6875 342.594 82.3438C340.125 84 337.406 85.2031 334.438 85.9531V107Z" fill="#161411"/>
<path d="M377.188 53.2344V80.1406H390.641C392.484 80.1406 394.219 79.7969 395.844 79.1094C397.469 78.3906 398.891 77.4219 400.109 76.2031C401.328 74.9844 402.281 73.5625 402.969 71.9375C403.688 70.2812 404.047 68.5313 404.047 66.6875C404.047 64.8438 403.688 63.1094 402.969 61.4844C402.281 59.8281 401.328 58.3906 400.109 57.1719C398.891 55.9531 397.469 55 395.844 54.3125C394.219 53.5938 392.484 53.2344 390.641 53.2344H377.188ZM377.188 107H363.734V39.7813H390.641C393.109 39.7813 395.484 40.1094 397.766 40.7656C400.047 41.3906 402.172 42.2969 404.141 43.4844C406.141 44.6406 407.953 46.0469 409.578 47.7031C411.234 49.3281 412.641 51.1406 413.797 53.1406C414.984 55.1406 415.891 57.2813 416.516 59.5625C417.172 61.8438 417.5 64.2188 417.5 66.6875C417.5 69 417.203 71.25 416.609 73.4375C416.047 75.625 415.219 77.7031 414.125 79.6719C413.062 81.6406 411.75 83.4531 410.188 85.1094C408.625 86.7656 406.875 88.2031 404.938 89.4219L412.391 107H398.094L392.234 93.4531L377.188 93.5469V107Z" fill="#161411"/>
<path d="M439.812 107H426.359V39.7813H439.812V107Z" fill="#161411"/>
<path d="M491.891 80.1406V66.6875C491.891 64.8438 491.531 63.1094 490.812 61.4844C490.125 59.8281 489.172 58.3906 487.953 57.1719C486.734 55.9531 485.297 55 483.641 54.3125C482.016 53.5938 480.281 53.2344 478.438 53.2344C476.594 53.2344 474.844 53.5938 473.188 54.3125C471.562 55 470.141 55.9531 468.922 57.1719C467.703 58.3906 466.734 59.8281 466.016 61.4844C465.328 63.1094 464.984 64.8438 464.984 66.6875V80.1406H491.891ZM505.344 107H491.891V93.5469H464.984V107H451.578V66.6875C451.578 62.9688 452.281 59.4844 453.688 56.2344C455.094 52.9531 457 50.0938 459.406 47.6563C461.844 45.2188 464.688 43.2969 467.938 41.8906C471.219 40.4844 474.719 39.7813 478.438 39.7813C482.156 39.7813 485.641 40.4844 488.891 41.8906C492.172 43.2969 495.031 45.2188 497.469 47.6563C499.906 50.0938 501.828 52.9531 503.234 56.2344C504.641 59.4844 505.344 62.9688 505.344 66.6875V107Z" fill="#161411"/>
<path d="M570.781 107H556.391L530.469 62.75V107H517.016V39.7813H531.406L557.328 84.0781V39.7813H570.781V107Z" fill="#161411"/>
</svg>
