<svg width="169" height="30" viewBox="0 0 169 30" fill="none" xmlns="http://www.w3.org/2000/svg">
<path d="M15.096 2.71859C15.4072 1.82287 16.674 1.82288 16.9852 2.71859L19.4085 9.69296C19.5483 10.0951 19.9274 10.3647 20.3531 10.3647H28.0448C29.0297 10.3647 29.4215 11.6384 28.6068 12.1919L22.502 16.3395C22.1278 16.5938 21.9709 17.0676 22.1194 17.4949L24.478 24.283C24.7941 25.1926 23.7679 25.9795 22.9714 25.4383L16.6026 21.1113C16.2634 20.8808 15.8178 20.8808 15.4786 21.1113L9.10981 25.4383C8.31328 25.9795 7.28717 25.1926 7.60323 24.283L9.96182 17.4949C10.1103 17.0676 9.95339 16.5938 9.57919 16.3395L3.47441 12.1919C2.65976 11.6384 3.0515 10.3647 4.03639 10.3647H11.7281C12.1539 10.3647 12.5329 10.0951 12.6727 9.69296L15.096 2.71859Z" fill="#100E0C"/>
<path d="M49.1666 2.71859C49.4778 1.82287 50.7446 1.82288 51.0558 2.71859L53.4791 9.69296C53.6189 10.0951 53.998 10.3647 54.4238 10.3647H62.1154C63.1003 10.3647 63.4921 11.6384 62.6774 12.1919L56.5726 16.3395C56.1984 16.5938 56.0415 17.0676 56.19 17.4949L58.5486 24.283C58.8647 25.1926 57.8386 25.9795 57.042 25.4383L50.6732 21.1113C50.334 20.8808 49.8885 20.8808 49.5493 21.1113L43.1804 25.4383C42.3839 25.9795 41.3578 25.1926 41.6738 24.283L44.0324 17.4949C44.1809 17.0676 44.024 16.5938 43.6498 16.3395L37.545 12.1919C36.7304 11.6384 37.1221 10.3647 38.107 10.3647H45.7987C46.2245 10.3647 46.6036 10.0951 46.7433 9.69296L49.1666 2.71859Z" fill="#100E0C"/>
<path d="M83.2372 2.71859C83.5485 1.82287 84.8152 1.82288 85.1264 2.71859L87.5498 9.69296C87.6895 10.0951 88.0686 10.3647 88.4944 10.3647H96.1861C97.1709 10.3647 97.5627 11.6384 96.748 12.1919L90.6433 16.3395C90.2691 16.5938 90.1122 17.0676 90.2606 17.4949L92.6192 24.283C92.9353 25.1926 91.9092 25.9795 91.1126 25.4383L84.7438 21.1113C84.4046 20.8808 83.9591 20.8808 83.6199 21.1113L77.251 25.4383C76.4545 25.9795 75.4284 25.1926 75.7445 24.283L78.1031 17.4949C78.2515 17.0676 78.0946 16.5938 77.7204 16.3395L71.6156 12.1919C70.801 11.6384 71.1927 10.3647 72.1776 10.3647H79.8693C80.2951 10.3647 80.6742 10.0951 80.8139 9.69296L83.2372 2.71859Z" fill="#100E0C"/>
<path d="M117.308 2.71859C117.619 1.82287 118.886 1.82288 119.197 2.71859L121.62 9.69296C121.76 10.0951 122.139 10.3647 122.565 10.3647H130.257C131.242 10.3647 131.633 11.6384 130.819 12.1919L124.714 16.3395C124.34 16.5938 124.183 17.0676 124.331 17.4949L126.69 24.283C127.006 25.1926 125.98 25.9795 125.183 25.4383L118.814 21.1113C118.475 20.8808 118.03 20.8808 117.691 21.1113L111.322 25.4383C110.525 25.9795 109.499 25.1926 109.815 24.283L112.174 17.4949C112.322 17.0676 112.165 16.5938 111.791 16.3395L105.686 12.1919C104.872 11.6384 105.263 10.3647 106.248 10.3647H113.94C114.366 10.3647 114.745 10.0951 114.885 9.69296L117.308 2.71859Z" fill="#100E0C"/>
<path d="M151.379 2.71859C151.69 1.82287 152.957 1.82288 153.268 2.71859L155.691 9.69296C155.831 10.0951 156.21 10.3647 156.636 10.3647H164.327C165.312 10.3647 165.704 11.6384 164.889 12.1919L158.785 16.3395C158.41 16.5938 158.253 17.0676 158.402 17.4949L160.761 24.283C161.077 25.1926 160.05 25.9795 159.254 25.4383L152.885 21.1113C152.546 20.8808 152.1 20.8808 151.761 21.1113L145.392 25.4383C144.596 25.9795 143.57 25.1926 143.886 24.283L146.244 17.4949C146.393 17.0676 146.236 16.5938 145.862 16.3395L139.757 12.1919C138.942 11.6384 139.334 10.3647 140.319 10.3647H148.011C148.436 10.3647 148.815 10.0951 148.955 9.69296L151.379 2.71859Z" fill="#100E0C"/>
</svg>
